<?xml version="1.0" standalone="no"?>
<!DOCTYPE svg PUBLIC "-//W3C//DTD SVG 20010904//EN"
 "http://www.w3.org/TR/2001/REC-SVG-20010904/DTD/svg10.dtd">
<svg version="1.0" xmlns="http://www.w3.org/2000/svg"
 width="1725.000000pt" height="1725.000000pt" viewBox="0 0 1725.000000 1725.000000"
 preserveAspectRatio="xMidYMid meet">
<metadata>
Created by potrace 1.11, written by Peter Selinger 2001-2013
</metadata>
<g transform="translate(0.000000,1725.000000) scale(0.100000,-0.100000)"
fill="#000000" stroke="none">
<path d="M8479 17246 c-2 -2 -49 -6 -104 -10 -55 -3 -111 -8 -125 -11 -14 -2
-50 -6 -80 -10 -75 -7 -217 -32 -325 -56 -49 -12 -97 -22 -105 -24 -84 -18
-369 -111 -450 -147 -317 -141 -512 -255 -731 -429 -120 -94 -338 -310 -425
-419 -32 -41 -62 -77 -65 -80 -15 -13 -163 -237 -214 -324 -178 -305 -333
-725 -401 -1088 -15 -79 -30 -146 -33 -150 -4 -4 -19 -1 -34 7 -15 7 -27 11
-27 8 0 -3 -6 -1 -12 5 -7 6 -60 28 -118 50 -280 105 -574 182 -800 208 -25 3
-50 7 -57 9 -72 24 -603 25 -743 1 -14 -3 -43 -7 -65 -11 -35 -5 -140 -24
-215 -40 -86 -17 -304 -86 -415 -130 -283 -114 -514 -248 -770 -449 -121 -95
-148 -119 -306 -276 -190 -190 -358 -396 -503 -620 -38 -58 -77 -117 -87 -132
-11 -15 -19 -29 -19 -31 0 -2 -23 -42 -51 -88 -50 -83 -177 -333 -213 -419
-10 -25 -27 -63 -36 -85 -10 -22 -23 -53 -29 -70 -6 -16 -16 -43 -22 -60 -7
-16 -13 -32 -14 -35 -1 -3 -20 -62 -42 -131 -36 -111 -88 -302 -99 -367 -2
-12 -8 -48 -14 -80 -5 -31 -12 -75 -15 -97 -3 -22 -8 -50 -10 -61 -19 -86 -26
-486 -12 -639 15 -162 46 -334 87 -490 92 -349 269 -710 499 -1020 41 -55 77
-102 80 -105 3 -3 26 -30 51 -60 114 -141 280 -306 489 -487 l33 -29 -58 -44
c-59 -43 -132 -103 -209 -170 -22 -19 -103 -98 -180 -175 -412 -413 -687 -881
-822 -1400 -29 -114 -27 -104 -38 -170 -5 -27 -10 -52 -10 -55 -1 -3 -5 -27
-10 -55 -4 -27 -9 -58 -11 -68 -19 -109 -26 -504 -11 -677 5 -52 10 -97 12
-100 1 -3 6 -32 10 -65 30 -264 162 -704 297 -995 91 -196 243 -481 260 -488
4 -2 8 -8 8 -13 0 -4 30 -55 66 -111 458 -708 1080 -1199 1788 -1413 110 -33
309 -78 401 -90 22 -2 56 -7 75 -10 206 -29 608 -24 805 10 17 2 48 7 70 10
22 4 85 15 140 27 55 11 109 22 120 24 11 2 61 15 110 29 50 14 98 27 108 30
10 2 79 25 152 50 74 25 138 45 142 45 5 0 10 -12 11 -27 2 -31 29 -206 37
-243 3 -14 8 -41 11 -60 35 -199 146 -551 239 -755 96 -210 276 -514 362 -610
10 -12 34 -41 53 -65 100 -130 283 -311 435 -432 351 -278 764 -476 1237 -592
174 -43 293 -64 513 -91 221 -27 743 -27 960 1 17 2 55 6 85 10 30 3 64 8 75
10 11 3 36 7 55 10 19 3 69 12 110 21 41 8 89 17 105 20 37 6 320 87 372 107
398 150 658 298 943 537 316 265 572 599 764 999 75 157 194 471 211 558 2 11
13 54 24 94 32 117 66 273 70 333 2 24 19 39 33 28 47 -38 542 -203 688 -230
14 -2 44 -8 68 -14 23 -5 59 -12 80 -15 20 -3 44 -7 52 -9 8 -2 37 -7 65 -11
27 -3 61 -8 75 -10 182 -25 605 -25 737 0 11 3 44 7 74 11 30 3 61 8 69 10 8
2 29 7 47 10 143 24 384 96 538 160 89 37 258 118 310 148 116 67 349 218 365
236 3 4 50 42 105 85 116 92 379 352 481 476 366 443 645 945 805 1447 39 125
70 243 94 358 12 58 36 204 40 249 3 28 8 69 11 91 9 72 12 428 4 510 -15 147
-21 200 -25 215 -3 8 -7 33 -11 55 -4 31 -32 161 -48 230 -16 67 -87 284 -111
340 -53 125 -77 175 -134 285 -190 369 -507 756 -865 1054 -52 43 -54 35 26
96 243 186 555 504 714 730 21 30 41 57 44 60 3 3 32 48 65 100 32 52 66 106
75 120 33 49 147 287 184 385 21 55 42 109 47 120 4 11 20 61 34 110 14 50 30
104 35 120 15 49 58 275 65 345 4 36 9 76 12 90 9 47 11 465 2 550 -22 216
-45 351 -93 540 -180 707 -592 1428 -1105 1929 -119 116 -326 286 -440 360
-42 28 -81 54 -87 58 -48 37 -288 163 -409 215 -92 40 -320 121 -375 133 -8 2
-64 15 -125 29 -217 49 -392 69 -630 70 -141 0 -371 -11 -385 -19 -3 -1 -30
-6 -61 -9 -31 -4 -67 -9 -80 -11 -13 -3 -37 -7 -54 -9 -148 -21 -501 -117
-664 -181 -69 -27 -66 -30 -76 69 -3 33 -8 62 -9 65 -2 3 -7 29 -11 56 -5 41
-23 128 -60 300 -26 118 -118 390 -184 545 -47 111 -159 322 -231 435 -188
295 -439 564 -720 772 -185 137 -434 277 -650 366 -82 34 -314 115 -348 122
-9 1 -42 10 -72 19 -30 8 -98 25 -150 37 -123 27 -127 28 -175 34 -22 3 -47 8
-55 10 -8 2 -37 6 -65 10 -27 3 -57 8 -65 10 -8 2 -51 7 -95 11 -44 4 -93 8
-110 10 -40 5 -602 14 -606 10z"/>
</g>
</svg>
